<mxfile host="app.diagrams.net" modified="2023-09-26T18:31:15.445Z" agent="Mozilla/5.0 (Macintosh; Intel Mac OS X 10_15_7) AppleWebKit/605.1.15 (KHTML, like Gecko) Version/16.6 Safari/605.1.15" etag="icdJLqmu4CIjrZSrEkRY" version="21.8.0" type="device">
  <diagram name="Страница — 1" id="9xPqIRqQ6y_nNxk67_06">
    <mxGraphModel dx="1317" dy="1477" grid="1" gridSize="10" guides="1" tooltips="1" connect="1" arrows="1" fold="1" page="1" pageScale="1" pageWidth="827" pageHeight="1169" math="0" shadow="0">
      <root>
        <mxCell id="0" />
        <mxCell id="1" parent="0" />
        <mxCell id="wB1rlY9Mi5Ir4K8NYxKC-17" style="edgeStyle=orthogonalEdgeStyle;rounded=0;orthogonalLoop=1;jettySize=auto;html=1;entryX=0;entryY=0.5;entryDx=0;entryDy=0;" edge="1" parent="1" source="wB1rlY9Mi5Ir4K8NYxKC-1" target="wB1rlY9Mi5Ir4K8NYxKC-2">
          <mxGeometry relative="1" as="geometry" />
        </mxCell>
        <mxCell id="wB1rlY9Mi5Ir4K8NYxKC-23" style="edgeStyle=orthogonalEdgeStyle;rounded=0;orthogonalLoop=1;jettySize=auto;html=1;entryX=0;entryY=0.5;entryDx=0;entryDy=0;" edge="1" parent="1" source="wB1rlY9Mi5Ir4K8NYxKC-1" target="wB1rlY9Mi5Ir4K8NYxKC-18">
          <mxGeometry relative="1" as="geometry" />
        </mxCell>
        <mxCell id="wB1rlY9Mi5Ir4K8NYxKC-24" style="edgeStyle=orthogonalEdgeStyle;rounded=0;orthogonalLoop=1;jettySize=auto;html=1;entryX=0;entryY=0.5;entryDx=0;entryDy=0;" edge="1" parent="1" source="wB1rlY9Mi5Ir4K8NYxKC-1" target="wB1rlY9Mi5Ir4K8NYxKC-19">
          <mxGeometry relative="1" as="geometry" />
        </mxCell>
        <mxCell id="wB1rlY9Mi5Ir4K8NYxKC-1" value="Actor" style="shape=umlActor;verticalLabelPosition=bottom;verticalAlign=top;html=1;outlineConnect=0;" vertex="1" parent="1">
          <mxGeometry x="40" y="510" width="30" height="60" as="geometry" />
        </mxCell>
        <mxCell id="wB1rlY9Mi5Ir4K8NYxKC-33" style="edgeStyle=orthogonalEdgeStyle;rounded=0;orthogonalLoop=1;jettySize=auto;html=1;exitX=1;exitY=0.5;exitDx=0;exitDy=0;entryX=0;entryY=0.5;entryDx=0;entryDy=0;" edge="1" parent="1" source="wB1rlY9Mi5Ir4K8NYxKC-2" target="wB1rlY9Mi5Ir4K8NYxKC-31">
          <mxGeometry relative="1" as="geometry" />
        </mxCell>
        <mxCell id="wB1rlY9Mi5Ir4K8NYxKC-2" value="" style="ellipse;whiteSpace=wrap;html=1;" vertex="1" parent="1">
          <mxGeometry x="120" y="280" width="120" height="80" as="geometry" />
        </mxCell>
        <mxCell id="wB1rlY9Mi5Ir4K8NYxKC-14" style="edgeStyle=orthogonalEdgeStyle;rounded=0;orthogonalLoop=1;jettySize=auto;html=1;entryX=0.5;entryY=0;entryDx=0;entryDy=0;" edge="1" parent="1" source="wB1rlY9Mi5Ir4K8NYxKC-3" target="wB1rlY9Mi5Ir4K8NYxKC-4">
          <mxGeometry relative="1" as="geometry" />
        </mxCell>
        <mxCell id="wB1rlY9Mi5Ir4K8NYxKC-36" style="edgeStyle=orthogonalEdgeStyle;rounded=0;orthogonalLoop=1;jettySize=auto;html=1;exitX=1;exitY=0.5;exitDx=0;exitDy=0;entryX=0;entryY=0.5;entryDx=0;entryDy=0;" edge="1" parent="1" source="wB1rlY9Mi5Ir4K8NYxKC-3" target="wB1rlY9Mi5Ir4K8NYxKC-34">
          <mxGeometry relative="1" as="geometry" />
        </mxCell>
        <mxCell id="wB1rlY9Mi5Ir4K8NYxKC-3" value="" style="ellipse;whiteSpace=wrap;html=1;" vertex="1" parent="1">
          <mxGeometry x="120" y="390" width="120" height="80" as="geometry" />
        </mxCell>
        <mxCell id="wB1rlY9Mi5Ir4K8NYxKC-15" style="edgeStyle=orthogonalEdgeStyle;rounded=0;orthogonalLoop=1;jettySize=auto;html=1;entryX=0.5;entryY=0;entryDx=0;entryDy=0;" edge="1" parent="1" source="wB1rlY9Mi5Ir4K8NYxKC-4" target="wB1rlY9Mi5Ir4K8NYxKC-5">
          <mxGeometry relative="1" as="geometry" />
        </mxCell>
        <mxCell id="wB1rlY9Mi5Ir4K8NYxKC-45" style="edgeStyle=orthogonalEdgeStyle;rounded=0;orthogonalLoop=1;jettySize=auto;html=1;exitX=1;exitY=0.5;exitDx=0;exitDy=0;entryX=0;entryY=0.5;entryDx=0;entryDy=0;" edge="1" parent="1" source="wB1rlY9Mi5Ir4K8NYxKC-4" target="wB1rlY9Mi5Ir4K8NYxKC-37">
          <mxGeometry relative="1" as="geometry" />
        </mxCell>
        <mxCell id="wB1rlY9Mi5Ir4K8NYxKC-64" style="edgeStyle=orthogonalEdgeStyle;rounded=0;orthogonalLoop=1;jettySize=auto;html=1;exitX=1;exitY=0.5;exitDx=0;exitDy=0;entryX=0.5;entryY=0;entryDx=0;entryDy=0;" edge="1" parent="1" source="wB1rlY9Mi5Ir4K8NYxKC-4" target="wB1rlY9Mi5Ir4K8NYxKC-62">
          <mxGeometry relative="1" as="geometry">
            <Array as="points">
              <mxPoint x="222" y="540" />
              <mxPoint x="222" y="480" />
              <mxPoint x="740" y="480" />
            </Array>
          </mxGeometry>
        </mxCell>
        <mxCell id="wB1rlY9Mi5Ir4K8NYxKC-4" value="" style="ellipse;whiteSpace=wrap;html=1;" vertex="1" parent="1">
          <mxGeometry x="120" y="500" width="120" height="80" as="geometry" />
        </mxCell>
        <mxCell id="wB1rlY9Mi5Ir4K8NYxKC-16" style="edgeStyle=orthogonalEdgeStyle;rounded=0;orthogonalLoop=1;jettySize=auto;html=1;entryX=0.5;entryY=0;entryDx=0;entryDy=0;" edge="1" parent="1" source="wB1rlY9Mi5Ir4K8NYxKC-5" target="wB1rlY9Mi5Ir4K8NYxKC-6">
          <mxGeometry relative="1" as="geometry" />
        </mxCell>
        <mxCell id="wB1rlY9Mi5Ir4K8NYxKC-46" style="edgeStyle=orthogonalEdgeStyle;rounded=0;orthogonalLoop=1;jettySize=auto;html=1;exitX=1;exitY=0.5;exitDx=0;exitDy=0;entryX=0;entryY=0.5;entryDx=0;entryDy=0;" edge="1" parent="1" source="wB1rlY9Mi5Ir4K8NYxKC-5" target="wB1rlY9Mi5Ir4K8NYxKC-39">
          <mxGeometry relative="1" as="geometry" />
        </mxCell>
        <mxCell id="wB1rlY9Mi5Ir4K8NYxKC-5" value="" style="ellipse;whiteSpace=wrap;html=1;" vertex="1" parent="1">
          <mxGeometry x="120" y="610" width="120" height="80" as="geometry" />
        </mxCell>
        <mxCell id="wB1rlY9Mi5Ir4K8NYxKC-6" value="" style="ellipse;whiteSpace=wrap;html=1;" vertex="1" parent="1">
          <mxGeometry x="120" y="730" width="120" height="80" as="geometry" />
        </mxCell>
        <mxCell id="wB1rlY9Mi5Ir4K8NYxKC-7" value="Открытие месенджера" style="text;html=1;strokeColor=none;fillColor=none;align=center;verticalAlign=middle;whiteSpace=wrap;rounded=0;" vertex="1" parent="1">
          <mxGeometry x="155" y="310" width="50" height="20" as="geometry" />
        </mxCell>
        <mxCell id="wB1rlY9Mi5Ir4K8NYxKC-8" value="Выбор контакта" style="text;html=1;strokeColor=none;fillColor=none;align=center;verticalAlign=middle;whiteSpace=wrap;rounded=0;" vertex="1" parent="1">
          <mxGeometry x="155" y="420" width="50" height="20" as="geometry" />
        </mxCell>
        <mxCell id="wB1rlY9Mi5Ir4K8NYxKC-9" value="Написание сообщения" style="text;html=1;strokeColor=none;fillColor=none;align=center;verticalAlign=middle;whiteSpace=wrap;rounded=0;" vertex="1" parent="1">
          <mxGeometry x="155" y="530" width="50" height="20" as="geometry" />
        </mxCell>
        <mxCell id="wB1rlY9Mi5Ir4K8NYxKC-10" value="Отправка сообщения" style="text;html=1;strokeColor=none;fillColor=none;align=center;verticalAlign=middle;whiteSpace=wrap;rounded=0;" vertex="1" parent="1">
          <mxGeometry x="155" y="640" width="50" height="20" as="geometry" />
        </mxCell>
        <mxCell id="wB1rlY9Mi5Ir4K8NYxKC-11" value="Продолжение обмена сообщениями" style="text;html=1;strokeColor=none;fillColor=none;align=center;verticalAlign=middle;whiteSpace=wrap;rounded=0;" vertex="1" parent="1">
          <mxGeometry x="155" y="760" width="50" height="20" as="geometry" />
        </mxCell>
        <mxCell id="wB1rlY9Mi5Ir4K8NYxKC-12" value="" style="endArrow=classic;html=1;rounded=0;exitX=0.5;exitY=1;exitDx=0;exitDy=0;entryX=0.5;entryY=0;entryDx=0;entryDy=0;" edge="1" parent="1" source="wB1rlY9Mi5Ir4K8NYxKC-2" target="wB1rlY9Mi5Ir4K8NYxKC-3">
          <mxGeometry width="50" height="50" relative="1" as="geometry">
            <mxPoint x="170" y="420" as="sourcePoint" />
            <mxPoint x="220" y="370" as="targetPoint" />
          </mxGeometry>
        </mxCell>
        <mxCell id="wB1rlY9Mi5Ir4K8NYxKC-27" style="edgeStyle=orthogonalEdgeStyle;rounded=0;orthogonalLoop=1;jettySize=auto;html=1;exitX=1;exitY=0.5;exitDx=0;exitDy=0;entryX=0;entryY=0.5;entryDx=0;entryDy=0;" edge="1" parent="1" source="wB1rlY9Mi5Ir4K8NYxKC-18" target="wB1rlY9Mi5Ir4K8NYxKC-25">
          <mxGeometry relative="1" as="geometry" />
        </mxCell>
        <mxCell id="wB1rlY9Mi5Ir4K8NYxKC-18" value="" style="ellipse;whiteSpace=wrap;html=1;" vertex="1" parent="1">
          <mxGeometry x="120" y="40" width="120" height="80" as="geometry" />
        </mxCell>
        <mxCell id="wB1rlY9Mi5Ir4K8NYxKC-29" style="edgeStyle=orthogonalEdgeStyle;rounded=0;orthogonalLoop=1;jettySize=auto;html=1;exitX=1;exitY=0.5;exitDx=0;exitDy=0;entryX=0;entryY=0.5;entryDx=0;entryDy=0;" edge="1" parent="1" source="wB1rlY9Mi5Ir4K8NYxKC-19" target="wB1rlY9Mi5Ir4K8NYxKC-28">
          <mxGeometry relative="1" as="geometry" />
        </mxCell>
        <mxCell id="wB1rlY9Mi5Ir4K8NYxKC-19" value="" style="ellipse;whiteSpace=wrap;html=1;" vertex="1" parent="1">
          <mxGeometry x="120" y="140" width="120" height="80" as="geometry" />
        </mxCell>
        <mxCell id="wB1rlY9Mi5Ir4K8NYxKC-20" value="Регистрация в месенджере" style="text;html=1;strokeColor=none;fillColor=none;align=center;verticalAlign=middle;whiteSpace=wrap;rounded=0;" vertex="1" parent="1">
          <mxGeometry x="155" y="70" width="50" height="20" as="geometry" />
        </mxCell>
        <mxCell id="wB1rlY9Mi5Ir4K8NYxKC-21" value="Логин в месенджере" style="text;html=1;strokeColor=none;fillColor=none;align=center;verticalAlign=middle;whiteSpace=wrap;rounded=0;" vertex="1" parent="1">
          <mxGeometry x="155" y="170" width="50" height="20" as="geometry" />
        </mxCell>
        <mxCell id="wB1rlY9Mi5Ir4K8NYxKC-52" style="edgeStyle=orthogonalEdgeStyle;rounded=0;orthogonalLoop=1;jettySize=auto;html=1;exitX=1;exitY=0.5;exitDx=0;exitDy=0;entryX=0;entryY=0.5;entryDx=0;entryDy=0;" edge="1" parent="1" source="wB1rlY9Mi5Ir4K8NYxKC-25" target="wB1rlY9Mi5Ir4K8NYxKC-50">
          <mxGeometry relative="1" as="geometry" />
        </mxCell>
        <mxCell id="wB1rlY9Mi5Ir4K8NYxKC-25" value="" style="ellipse;whiteSpace=wrap;html=1;" vertex="1" parent="1">
          <mxGeometry x="280" y="40" width="120" height="80" as="geometry" />
        </mxCell>
        <mxCell id="wB1rlY9Mi5Ir4K8NYxKC-26" value="Ввод данных пользователя" style="text;html=1;strokeColor=none;fillColor=none;align=center;verticalAlign=middle;whiteSpace=wrap;rounded=0;" vertex="1" parent="1">
          <mxGeometry x="315" y="70" width="50" height="20" as="geometry" />
        </mxCell>
        <mxCell id="wB1rlY9Mi5Ir4K8NYxKC-28" value="" style="ellipse;whiteSpace=wrap;html=1;" vertex="1" parent="1">
          <mxGeometry x="280" y="140" width="120" height="80" as="geometry" />
        </mxCell>
        <mxCell id="wB1rlY9Mi5Ir4K8NYxKC-30" value="Ввод учетных данных" style="text;html=1;strokeColor=none;fillColor=none;align=center;verticalAlign=middle;whiteSpace=wrap;rounded=0;" vertex="1" parent="1">
          <mxGeometry x="320" y="170" width="50" height="20" as="geometry" />
        </mxCell>
        <mxCell id="wB1rlY9Mi5Ir4K8NYxKC-61" style="edgeStyle=orthogonalEdgeStyle;rounded=0;orthogonalLoop=1;jettySize=auto;html=1;" edge="1" parent="1" source="wB1rlY9Mi5Ir4K8NYxKC-31" target="wB1rlY9Mi5Ir4K8NYxKC-59">
          <mxGeometry relative="1" as="geometry" />
        </mxCell>
        <mxCell id="wB1rlY9Mi5Ir4K8NYxKC-31" value="" style="ellipse;whiteSpace=wrap;html=1;" vertex="1" parent="1">
          <mxGeometry x="280" y="280" width="120" height="80" as="geometry" />
        </mxCell>
        <mxCell id="wB1rlY9Mi5Ir4K8NYxKC-32" value="Отображение списка контактов и диалогов" style="text;html=1;strokeColor=none;fillColor=none;align=center;verticalAlign=middle;whiteSpace=wrap;rounded=0;" vertex="1" parent="1">
          <mxGeometry x="315" y="310" width="50" height="20" as="geometry" />
        </mxCell>
        <mxCell id="wB1rlY9Mi5Ir4K8NYxKC-34" value="" style="ellipse;whiteSpace=wrap;html=1;" vertex="1" parent="1">
          <mxGeometry x="280" y="390" width="120" height="80" as="geometry" />
        </mxCell>
        <mxCell id="wB1rlY9Mi5Ir4K8NYxKC-35" value="Открытие диалого с выбранным контактом" style="text;html=1;strokeColor=none;fillColor=none;align=center;verticalAlign=middle;whiteSpace=wrap;rounded=0;" vertex="1" parent="1">
          <mxGeometry x="315" y="420" width="50" height="20" as="geometry" />
        </mxCell>
        <mxCell id="wB1rlY9Mi5Ir4K8NYxKC-37" value="" style="ellipse;whiteSpace=wrap;html=1;" vertex="1" parent="1">
          <mxGeometry x="280" y="500" width="120" height="80" as="geometry" />
        </mxCell>
        <mxCell id="wB1rlY9Mi5Ir4K8NYxKC-38" value="Ввод текста сообщения" style="text;html=1;strokeColor=none;fillColor=none;align=center;verticalAlign=middle;whiteSpace=wrap;rounded=0;" vertex="1" parent="1">
          <mxGeometry x="315" y="530" width="50" height="20" as="geometry" />
        </mxCell>
        <mxCell id="wB1rlY9Mi5Ir4K8NYxKC-48" style="edgeStyle=orthogonalEdgeStyle;rounded=0;orthogonalLoop=1;jettySize=auto;html=1;exitX=1;exitY=0.5;exitDx=0;exitDy=0;entryX=0;entryY=0.5;entryDx=0;entryDy=0;" edge="1" parent="1" source="wB1rlY9Mi5Ir4K8NYxKC-39" target="wB1rlY9Mi5Ir4K8NYxKC-41">
          <mxGeometry relative="1" as="geometry" />
        </mxCell>
        <mxCell id="wB1rlY9Mi5Ir4K8NYxKC-39" value="" style="ellipse;whiteSpace=wrap;html=1;" vertex="1" parent="1">
          <mxGeometry x="285" y="610" width="120" height="80" as="geometry" />
        </mxCell>
        <mxCell id="wB1rlY9Mi5Ir4K8NYxKC-40" value="Отправка сообщения выбранному контакту" style="text;html=1;strokeColor=none;fillColor=none;align=center;verticalAlign=middle;whiteSpace=wrap;rounded=0;" vertex="1" parent="1">
          <mxGeometry x="320" y="640" width="50" height="20" as="geometry" />
        </mxCell>
        <mxCell id="wB1rlY9Mi5Ir4K8NYxKC-49" style="edgeStyle=orthogonalEdgeStyle;rounded=0;orthogonalLoop=1;jettySize=auto;html=1;exitX=1;exitY=0.5;exitDx=0;exitDy=0;entryX=0;entryY=0.5;entryDx=0;entryDy=0;" edge="1" parent="1" source="wB1rlY9Mi5Ir4K8NYxKC-41" target="wB1rlY9Mi5Ir4K8NYxKC-43">
          <mxGeometry relative="1" as="geometry" />
        </mxCell>
        <mxCell id="wB1rlY9Mi5Ir4K8NYxKC-41" value="" style="ellipse;whiteSpace=wrap;html=1;" vertex="1" parent="1">
          <mxGeometry x="440" y="610" width="120" height="80" as="geometry" />
        </mxCell>
        <mxCell id="wB1rlY9Mi5Ir4K8NYxKC-42" value="Отображение отправленного сообщения" style="text;html=1;strokeColor=none;fillColor=none;align=center;verticalAlign=middle;whiteSpace=wrap;rounded=0;" vertex="1" parent="1">
          <mxGeometry x="475" y="640" width="50" height="20" as="geometry" />
        </mxCell>
        <mxCell id="wB1rlY9Mi5Ir4K8NYxKC-43" value="" style="ellipse;whiteSpace=wrap;html=1;" vertex="1" parent="1">
          <mxGeometry x="600" y="610" width="120" height="80" as="geometry" />
        </mxCell>
        <mxCell id="wB1rlY9Mi5Ir4K8NYxKC-44" value="Уведомление о доставке сообщения" style="text;html=1;strokeColor=none;fillColor=none;align=center;verticalAlign=middle;whiteSpace=wrap;rounded=0;" vertex="1" parent="1">
          <mxGeometry x="635" y="640" width="50" height="20" as="geometry" />
        </mxCell>
        <mxCell id="wB1rlY9Mi5Ir4K8NYxKC-50" value="" style="ellipse;whiteSpace=wrap;html=1;" vertex="1" parent="1">
          <mxGeometry x="690" y="40" width="120" height="80" as="geometry" />
        </mxCell>
        <mxCell id="wB1rlY9Mi5Ir4K8NYxKC-51" value="Система создает новую учетную запись" style="text;html=1;strokeColor=none;fillColor=none;align=center;verticalAlign=middle;whiteSpace=wrap;rounded=0;" vertex="1" parent="1">
          <mxGeometry x="725" y="70" width="50" height="20" as="geometry" />
        </mxCell>
        <mxCell id="wB1rlY9Mi5Ir4K8NYxKC-53" value="" style="ellipse;whiteSpace=wrap;html=1;" vertex="1" parent="1">
          <mxGeometry x="690" y="140" width="120" height="80" as="geometry" />
        </mxCell>
        <mxCell id="wB1rlY9Mi5Ir4K8NYxKC-54" value="Система проверяет данные и разрешает вход" style="text;html=1;strokeColor=none;fillColor=none;align=center;verticalAlign=middle;whiteSpace=wrap;rounded=0;" vertex="1" parent="1">
          <mxGeometry x="725" y="170" width="50" height="20" as="geometry" />
        </mxCell>
        <mxCell id="wB1rlY9Mi5Ir4K8NYxKC-55" style="edgeStyle=orthogonalEdgeStyle;rounded=0;orthogonalLoop=1;jettySize=auto;html=1;exitX=1;exitY=0.5;exitDx=0;exitDy=0;entryX=0;entryY=0.5;entryDx=0;entryDy=0;" edge="1" parent="1" source="wB1rlY9Mi5Ir4K8NYxKC-28" target="wB1rlY9Mi5Ir4K8NYxKC-53">
          <mxGeometry relative="1" as="geometry" />
        </mxCell>
        <mxCell id="wB1rlY9Mi5Ir4K8NYxKC-59" value="" style="ellipse;whiteSpace=wrap;html=1;" vertex="1" parent="1">
          <mxGeometry x="680" y="280" width="120" height="80" as="geometry" />
        </mxCell>
        <mxCell id="wB1rlY9Mi5Ir4K8NYxKC-60" value="Система загружает список чатов и контактов" style="text;html=1;strokeColor=none;fillColor=none;align=center;verticalAlign=middle;whiteSpace=wrap;rounded=0;" vertex="1" parent="1">
          <mxGeometry x="715" y="310" width="50" height="20" as="geometry" />
        </mxCell>
        <mxCell id="wB1rlY9Mi5Ir4K8NYxKC-62" value="" style="ellipse;whiteSpace=wrap;html=1;" vertex="1" parent="1">
          <mxGeometry x="680" y="500" width="120" height="80" as="geometry" />
        </mxCell>
        <mxCell id="wB1rlY9Mi5Ir4K8NYxKC-63" value="Система выдает ошибку при пустом сообщении" style="text;html=1;strokeColor=none;fillColor=none;align=center;verticalAlign=middle;whiteSpace=wrap;rounded=0;" vertex="1" parent="1">
          <mxGeometry x="715" y="530" width="50" height="20" as="geometry" />
        </mxCell>
      </root>
    </mxGraphModel>
  </diagram>
</mxfile>
